<?xml version="1.0" encoding="UTF-8" standalone="no"?>
<!DOCTYPE svg PUBLIC "-//W3C//DTD SVG 1.1//EN"
 "http://www.w3.org/Graphics/SVG/1.1/DTD/svg11.dtd">
<!-- Generated by graphviz version 2.43.0 (0)
 -->
<!-- Title: no_os_clk_init Pages: 1 -->
<svg width="483pt" height="286pt"
 viewBox="0.00 0.00 483.00 286.00" xmlns="http://www.w3.org/2000/svg" xmlns:xlink="http://www.w3.org/1999/xlink">
<g id="graph0" class="graph" transform="scale(1 1) rotate(0) translate(4 282)">
<title>no_os_clk_init</title>
<!-- Node1 -->
<g id="Node000001" class="node">
<title>Node1</title>
<g id="a_Node000001"><a xlink:title=" ">
<polygon fill="#999999" stroke="#666666" points="475,-129 389,-129 389,-110 475,-110 475,-129"/>
<text text-anchor="middle" x="432" y="-117" font-family="Helvetica,sans-Serif" font-size="10.00">no_os_clk_init</text>
</a>
</g>
</g>
<!-- Node2 -->
<g id="Node000002" class="node">
<title>Node2</title>
<g id="a_Node000002"><a xlink:href="drivers_2frequency_2ad9528_2ad9528_8c.html#a300fee1e9b4ba514e195d5312b11eea3" target="_top" xlink:title="Initializes the AD9528.">
<polygon fill="white" stroke="#666666" points="335.5,-148 250.5,-148 250.5,-129 335.5,-129 335.5,-148"/>
<text text-anchor="middle" x="293" y="-136" font-family="Helvetica,sans-Serif" font-size="10.00">ad9528_setup</text>
</a>
</g>
</g>
<!-- Node1&#45;&gt;Node2 -->
<g id="edge1_Node000001_Node000002" class="edge">
<title>Node1&#45;&gt;Node2</title>
<g id="a_edge1_Node000001_Node000002"><a xlink:title=" ">
<path fill="none" stroke="#63b8ff" d="M378.67,-126.76C364.5,-128.72 349.36,-130.82 335.85,-132.7"/>
<polygon fill="#63b8ff" stroke="#63b8ff" points="379.35,-130.2 388.78,-125.36 378.39,-123.26 379.35,-130.2"/>
</a>
</g>
</g>
<!-- Node12 -->
<g id="Node000012" class="node">
<title>Node12</title>
<g id="a_Node000012"><a xlink:href="axi__adxcvr_8c.html#a67ef0bb38e4648e42b5cfa3a7991c49c" target="_top" xlink:title="AXI ADXCVR Device Initialization.">
<polygon fill="white" stroke="#666666" points="328.5,-111 257.5,-111 257.5,-92 328.5,-92 328.5,-111"/>
<text text-anchor="middle" x="293" y="-99" font-family="Helvetica,sans-Serif" font-size="10.00">adxcvr_init</text>
</a>
</g>
</g>
<!-- Node1&#45;&gt;Node12 -->
<g id="edge11_Node000001_Node000012" class="edge">
<title>Node1&#45;&gt;Node12</title>
<g id="a_edge11_Node000001_Node000012"><a xlink:title=" ">
<path fill="none" stroke="#63b8ff" d="M378.55,-112.61C361.78,-110.41 343.66,-108.02 328.5,-106.03"/>
<polygon fill="#63b8ff" stroke="#63b8ff" points="378.41,-116.12 388.78,-113.95 379.32,-109.18 378.41,-116.12"/>
</a>
</g>
</g>
<!-- Node13 -->
<g id="Node000013" class="node">
<title>Node13</title>
<g id="a_Node000013"><a xlink:href="app__clock_8c.html#ac95a42f4c3d213e62ef9eb7223d9f41a" target="_top" xlink:title="Application clock setup.">
<polygon fill="white" stroke="#666666" points="180,-278 94,-278 94,-259 180,-259 180,-278"/>
<text text-anchor="middle" x="137" y="-266" font-family="Helvetica,sans-Serif" font-size="10.00">app_clock_init</text>
</a>
</g>
</g>
<!-- Node1&#45;&gt;Node13 -->
<g id="edge12_Node000001_Node000013" class="edge">
<title>Node1&#45;&gt;Node13</title>
<g id="a_edge12_Node000001_Node000013"><a xlink:title=" ">
<path fill="none" stroke="#63b8ff" d="M422.1,-138.29C409.92,-161.84 385.79,-201.64 353,-222.5 299.86,-256.31 225.91,-265.65 180.04,-268.01"/>
<polygon fill="#63b8ff" stroke="#63b8ff" points="425.25,-139.81 426.57,-129.29 418.98,-136.69 425.25,-139.81"/>
</a>
</g>
</g>
<!-- Node15 -->
<g id="Node000015" class="node">
<title>Node15</title>
<g id="a_Node000015"><a xlink:href="ad9545_2src_2examples_2basic_2basic__example_8c.html#a72943dc9011d36293cb05ca5d7cb6899" target="_top" xlink:title="Basic example main execution.">
<polygon fill="white" stroke="#666666" points="353,-74 233,-74 233,-55 353,-55 353,-74"/>
<text text-anchor="middle" x="293" y="-62" font-family="Helvetica,sans-Serif" font-size="10.00">basic_example_main</text>
</a>
</g>
</g>
<!-- Node1&#45;&gt;Node15 -->
<g id="edge14_Node000001_Node000015" class="edge">
<title>Node1&#45;&gt;Node15</title>
<g id="a_edge14_Node000001_Node000015"><a xlink:title=" ">
<path fill="none" stroke="#63b8ff" d="M403.65,-105.32C388.88,-97.97 370.2,-89.16 353,-82.5 345.11,-79.44 336.47,-76.56 328.3,-74.03"/>
<polygon fill="#63b8ff" stroke="#63b8ff" points="402.23,-108.52 412.74,-109.9 405.39,-102.27 402.23,-108.52"/>
</a>
</g>
</g>
<!-- Node16 -->
<g id="Node000016" class="node">
<title>Node16</title>
<g id="a_Node000016"><a xlink:href="hmc7044_8c.html#aa76b1a2eea781106b50fed22044dd394" target="_top" xlink:title=" ">
<polygon fill="white" stroke="#666666" points="334.5,-213 251.5,-213 251.5,-194 334.5,-194 334.5,-213"/>
<text text-anchor="middle" x="293" y="-201" font-family="Helvetica,sans-Serif" font-size="10.00">hmc7044_init</text>
</a>
</g>
</g>
<!-- Node1&#45;&gt;Node16 -->
<g id="edge15_Node000001_Node000016" class="edge">
<title>Node1&#45;&gt;Node16</title>
<g id="a_edge15_Node000001_Node000016"><a xlink:title=" ">
<path fill="none" stroke="#63b8ff" d="M406.47,-134.54C378.36,-151.77 333.16,-179.49 309.53,-193.98"/>
<polygon fill="#63b8ff" stroke="#63b8ff" points="408.59,-137.35 415.28,-129.14 404.93,-131.38 408.59,-137.35"/>
</a>
</g>
</g>
<!-- Node18 -->
<g id="Node000018" class="node">
<title>Node18</title>
<g id="a_Node000018"><a xlink:href="adrv9001_2src_2app_2headless_8c.html#a840291bc02cba5474a4cb46a9b9566fe" target="_top" xlink:title=" ">
<polygon fill="white" stroke="#666666" points="313.5,-37 272.5,-37 272.5,-18 313.5,-18 313.5,-37"/>
<text text-anchor="middle" x="293" y="-25" font-family="Helvetica,sans-Serif" font-size="10.00">main</text>
</a>
</g>
</g>
<!-- Node1&#45;&gt;Node18 -->
<g id="edge19_Node000001_Node000018" class="edge">
<title>Node1&#45;&gt;Node18</title>
<g id="a_edge19_Node000001_Node000018"><a xlink:title=" ">
<path fill="none" stroke="#63b8ff" d="M416.77,-101.92C402.34,-85.18 378.55,-60.39 353,-45.5 340.79,-38.38 325.48,-33.82 313.52,-31.07"/>
<polygon fill="#63b8ff" stroke="#63b8ff" points="414.31,-104.44 423.42,-109.85 419.67,-99.94 414.31,-104.44"/>
</a>
</g>
</g>
<!-- Node3 -->
<g id="Node000003" class="node">
<title>Node3</title>
<g id="a_Node000003"><a xlink:href="ad9083_2src_2app__clocking_8c.html#a38d8e42d7fcb81eb03edad7f6675c0b5" target="_top" xlink:title="Initialize the clocking app.">
<polygon fill="white" stroke="#666666" points="187.5,-130 86.5,-130 86.5,-111 187.5,-111 187.5,-130"/>
<text text-anchor="middle" x="137" y="-118" font-family="Helvetica,sans-Serif" font-size="10.00">app_clocking_init</text>
</a>
</g>
</g>
<!-- Node2&#45;&gt;Node3 -->
<g id="edge2_Node000002_Node000003" class="edge">
<title>Node2&#45;&gt;Node3</title>
<g id="a_edge2_Node000002_Node000003"><a xlink:title=" ">
<path fill="none" stroke="#63b8ff" d="M240.06,-132.43C223.13,-130.45 204.4,-128.26 187.65,-126.3"/>
<polygon fill="#63b8ff" stroke="#63b8ff" points="239.99,-135.94 250.33,-133.63 240.8,-128.99 239.99,-135.94"/>
</a>
</g>
</g>
<!-- Node5 -->
<g id="Node000005" class="node">
<title>Node5</title>
<g id="a_Node000005"><a xlink:href="adrv902x_2src_2examples_2basic__example_2basic__example_8c.html#ac5f0064cb4ac7ddab3ec02b10217b456" target="_top" xlink:title="Basic example main execution.">
<polygon fill="white" stroke="#666666" points="197,-56 77,-56 77,-37 197,-37 197,-56"/>
<text text-anchor="middle" x="137" y="-44" font-family="Helvetica,sans-Serif" font-size="10.00">basic_example_main</text>
</a>
</g>
</g>
<!-- Node2&#45;&gt;Node5 -->
<g id="edge4_Node000002_Node000005" class="edge">
<title>Node2&#45;&gt;Node5</title>
<g id="a_edge4_Node000002_Node000005"><a xlink:title=" ">
<path fill="none" stroke="#63b8ff" d="M240.97,-124.65C238.17,-123.11 235.49,-121.4 233,-119.5 209.77,-101.79 220.37,-82.03 197,-64.5 192.46,-61.09 187.27,-58.33 181.9,-56.08"/>
<polygon fill="#63b8ff" stroke="#63b8ff" points="239.7,-127.92 250.23,-129.03 242.69,-121.59 239.7,-127.92"/>
</a>
</g>
</g>
<!-- Node6 -->
<g id="Node000006" class="node">
<title>Node6</title>
<g id="a_Node000006"><a xlink:href="adrv9009_2src_2app_2app__clocking_8c.html#adab63a630c95f109e3b4330b5b0253b6" target="_top" xlink:title=" ">
<polygon fill="white" stroke="#666666" points="176,-204 98,-204 98,-185 176,-185 176,-204"/>
<text text-anchor="middle" x="137" y="-192" font-family="Helvetica,sans-Serif" font-size="10.00">clocking_init</text>
</a>
</g>
</g>
<!-- Node2&#45;&gt;Node6 -->
<g id="edge5_Node000002_Node000006" class="edge">
<title>Node2&#45;&gt;Node6</title>
<g id="a_edge5_Node000002_Node000006"><a xlink:title=" ">
<path fill="none" stroke="#63b8ff" d="M260.22,-151.99C241.88,-159.58 218.31,-169 197,-176.5 188.62,-179.45 179.47,-182.38 170.93,-184.99"/>
<polygon fill="#63b8ff" stroke="#63b8ff" points="261.67,-155.18 269.55,-148.1 258.98,-148.72 261.67,-155.18"/>
</a>
</g>
</g>
<!-- Node8 -->
<g id="Node000008" class="node">
<title>Node8</title>
<g id="a_Node000008"><a xlink:href="dma__example_8c.html#a6fab3c4f8551a0a277a9058ddb0f1914" target="_top" xlink:title="DMA example main execution.">
<polygon fill="white" stroke="#666666" points="195,-19 79,-19 79,0 195,0 195,-19"/>
<text text-anchor="middle" x="137" y="-7" font-family="Helvetica,sans-Serif" font-size="10.00">dma_example_main</text>
</a>
</g>
</g>
<!-- Node2&#45;&gt;Node8 -->
<g id="edge7_Node000002_Node000008" class="edge">
<title>Node2&#45;&gt;Node8</title>
<g id="a_edge7_Node000002_Node000008"><a xlink:title=" ">
<path fill="none" stroke="#63b8ff" d="M241.43,-125.82C238.4,-123.99 235.55,-121.89 233,-119.5 201.01,-89.42 229.22,-57.33 197,-27.5 193.31,-24.08 188.98,-21.31 184.38,-19.06"/>
<polygon fill="#63b8ff" stroke="#63b8ff" points="239.87,-128.95 250.38,-130.3 243.01,-122.69 239.87,-128.95"/>
</a>
</g>
</g>
<!-- Node10 -->
<g id="Node000010" class="node">
<title>Node10</title>
<g id="a_Node000010"><a xlink:href="adrv902x_2src_2examples_2iio__example_2iio__example_8c.html#a692b15b864d48091dc3d7095bea120b4" target="_top" xlink:title="IIO example main execution.">
<polygon fill="white" stroke="#666666" points="190.5,-167 83.5,-167 83.5,-148 190.5,-148 190.5,-167"/>
<text text-anchor="middle" x="137" y="-155" font-family="Helvetica,sans-Serif" font-size="10.00">iio_example_main</text>
</a>
</g>
</g>
<!-- Node2&#45;&gt;Node10 -->
<g id="edge9_Node000002_Node000010" class="edge">
<title>Node2&#45;&gt;Node10</title>
<g id="a_edge9_Node000002_Node000010"><a xlink:title=" ">
<path fill="none" stroke="#63b8ff" d="M240.14,-144.9C224.23,-146.86 206.71,-149.02 190.74,-150.99"/>
<polygon fill="#63b8ff" stroke="#63b8ff" points="240.83,-148.34 250.33,-143.64 239.97,-141.39 240.83,-148.34"/>
</a>
</g>
</g>
<!-- Node11 -->
<g id="Node000011" class="node">
<title>Node11</title>
<g id="a_Node000011"><a xlink:href="headless__mb_8c.html#a840291bc02cba5474a4cb46a9b9566fe" target="_top" xlink:title=" ">
<polygon fill="white" stroke="#666666" points="157.5,-93 116.5,-93 116.5,-74 157.5,-74 157.5,-93"/>
<text text-anchor="middle" x="137" y="-81" font-family="Helvetica,sans-Serif" font-size="10.00">main</text>
</a>
</g>
</g>
<!-- Node2&#45;&gt;Node11 -->
<g id="edge10_Node000002_Node000011" class="edge">
<title>Node2&#45;&gt;Node11</title>
<g id="a_edge10_Node000002_Node000011"><a xlink:title=" ">
<path fill="none" stroke="#63b8ff" d="M249.34,-125.62C243.8,-123.69 238.23,-121.64 233,-119.5 216.44,-112.74 213.61,-108.13 197,-101.5 184.17,-96.38 169.29,-91.85 157.68,-88.61"/>
<polygon fill="#63b8ff" stroke="#63b8ff" points="248.63,-129.07 259.22,-128.92 250.85,-122.43 248.63,-129.07"/>
</a>
</g>
</g>
<!-- Node4 -->
<g id="Node000004" class="node">
<title>Node4</title>
<g id="a_Node000004"><a xlink:href="ad9083_2src_2app_8c.html#a840291bc02cba5474a4cb46a9b9566fe" target="_top" xlink:title="Main application.">
<polygon fill="white" stroke="#666666" points="41,-130 0,-130 0,-111 41,-111 41,-130"/>
<text text-anchor="middle" x="20.5" y="-118" font-family="Helvetica,sans-Serif" font-size="10.00">main</text>
</a>
</g>
</g>
<!-- Node3&#45;&gt;Node4 -->
<g id="edge3_Node000003_Node000004" class="edge">
<title>Node3&#45;&gt;Node4</title>
<g id="a_edge3_Node000003_Node000004"><a xlink:title=" ">
<path fill="none" stroke="#63b8ff" d="M76.29,-120.5C63.6,-120.5 51.08,-120.5 41.22,-120.5"/>
<polygon fill="#63b8ff" stroke="#63b8ff" points="76.44,-124 86.44,-120.5 76.44,-117 76.44,-124"/>
</a>
</g>
</g>
<!-- Node7 -->
<g id="Node000007" class="node">
<title>Node7</title>
<g id="a_Node000007"><a xlink:href="headless__arm_8c.html#a840291bc02cba5474a4cb46a9b9566fe" target="_top" xlink:title=" ">
<polygon fill="white" stroke="#666666" points="41,-204 0,-204 0,-185 41,-185 41,-204"/>
<text text-anchor="middle" x="20.5" y="-192" font-family="Helvetica,sans-Serif" font-size="10.00">main</text>
</a>
</g>
</g>
<!-- Node6&#45;&gt;Node7 -->
<g id="edge6_Node000006_Node000007" class="edge">
<title>Node6&#45;&gt;Node7</title>
<g id="a_edge6_Node000006_Node000007"><a xlink:title=" ">
<path fill="none" stroke="#63b8ff" d="M87.85,-194.5C71.45,-194.5 54.04,-194.5 41.16,-194.5"/>
<polygon fill="#63b8ff" stroke="#63b8ff" points="87.87,-198 97.87,-194.5 87.87,-191 87.87,-198"/>
</a>
</g>
</g>
<!-- Node9 -->
<g id="Node000009" class="node">
<title>Node9</title>
<g id="a_Node000009"><a xlink:href="adrv902x_2src_2platform_2xilinx_2main_8c.html#ae66f6b31b5ad750f1fe042a706a4e3d4" target="_top" xlink:title="Main function execution for XILINX platform.">
<polygon fill="white" stroke="#666666" points="41,-19 0,-19 0,0 41,0 41,-19"/>
<text text-anchor="middle" x="20.5" y="-7" font-family="Helvetica,sans-Serif" font-size="10.00">main</text>
</a>
</g>
</g>
<!-- Node8&#45;&gt;Node9 -->
<g id="edge8_Node000008_Node000009" class="edge">
<title>Node8&#45;&gt;Node9</title>
<g id="a_edge8_Node000008_Node000009"><a xlink:title=" ">
<path fill="none" stroke="#63b8ff" d="M68.65,-9.5C58.64,-9.5 49.06,-9.5 41.18,-9.5"/>
<polygon fill="#63b8ff" stroke="#63b8ff" points="68.75,-13 78.75,-9.5 68.75,-6 68.75,-13"/>
</a>
</g>
</g>
<!-- Node14 -->
<g id="Node000014" class="node">
<title>Node14</title>
<g id="a_Node000014"><a xlink:href="ad9081_2src_2app_8c.html#a840291bc02cba5474a4cb46a9b9566fe" target="_top" xlink:title=" ">
<polygon fill="white" stroke="#666666" points="41,-278 0,-278 0,-259 41,-259 41,-278"/>
<text text-anchor="middle" x="20.5" y="-266" font-family="Helvetica,sans-Serif" font-size="10.00">main</text>
</a>
</g>
</g>
<!-- Node13&#45;&gt;Node14 -->
<g id="edge13_Node000013_Node000014" class="edge">
<title>Node13&#45;&gt;Node14</title>
<g id="a_edge13_Node000013_Node000014"><a xlink:title=" ">
<path fill="none" stroke="#63b8ff" d="M83.41,-268.5C68.4,-268.5 52.95,-268.5 41.24,-268.5"/>
<polygon fill="#63b8ff" stroke="#63b8ff" points="83.69,-272 93.69,-268.5 83.69,-265 83.69,-272"/>
</a>
</g>
</g>
<!-- Node16&#45;&gt;Node6 -->
<g id="edge17_Node000016_Node000006" class="edge">
<title>Node16&#45;&gt;Node6</title>
<g id="a_edge17_Node000016_Node000006"><a xlink:title=" ">
<path fill="none" stroke="#63b8ff" d="M241.02,-200.52C219.86,-199.28 195.73,-197.87 176.14,-196.73"/>
<polygon fill="#63b8ff" stroke="#63b8ff" points="240.95,-204.02 251.14,-201.11 241.36,-197.03 240.95,-204.02"/>
</a>
</g>
</g>
<!-- Node16&#45;&gt;Node13 -->
<g id="edge16_Node000016_Node000013" class="edge">
<title>Node16&#45;&gt;Node13</title>
<g id="a_edge16_Node000016_Node000013"><a xlink:title=" ">
<path fill="none" stroke="#63b8ff" d="M266.03,-217.79C247.22,-227.78 221,-240.98 197,-250.5 189.24,-253.58 180.73,-256.46 172.65,-258.96"/>
<polygon fill="#63b8ff" stroke="#63b8ff" points="267.73,-220.85 274.88,-213.03 264.41,-214.68 267.73,-220.85"/>
</a>
</g>
</g>
<!-- Node17 -->
<g id="Node000017" class="node">
<title>Node17</title>
<g id="a_Node000017"><a xlink:href="ad9172_2src_2main_8c.html#a840291bc02cba5474a4cb46a9b9566fe" target="_top" xlink:title=" ">
<polygon fill="white" stroke="#666666" points="157.5,-241 116.5,-241 116.5,-222 157.5,-222 157.5,-241"/>
<text text-anchor="middle" x="137" y="-229" font-family="Helvetica,sans-Serif" font-size="10.00">main</text>
</a>
</g>
</g>
<!-- Node16&#45;&gt;Node17 -->
<g id="edge18_Node000016_Node000017" class="edge">
<title>Node16&#45;&gt;Node17</title>
<g id="a_edge18_Node000016_Node000017"><a xlink:title=" ">
<path fill="none" stroke="#63b8ff" d="M240.94,-212.78C212.54,-217.95 178.79,-224.08 157.88,-227.88"/>
<polygon fill="#63b8ff" stroke="#63b8ff" points="241.92,-216.16 251.14,-210.93 240.67,-209.28 241.92,-216.16"/>
</a>
</g>
</g>
</g>
</svg>
